<svg xmlns="http://www.w3.org/2000/svg">
    <symbol id="icon-Logo1" viewBox="0 0 68 32">
        <path fill="#f0145a" style="fill: var(--color1, #f0145a)" d="M2.6 0h-2.6v18.78h2.6v-6.967c0-1.179 0.293-2.108 0.88-2.763s1.389-0.995 2.384-0.995c0.854 0 1.568 0.314 2.141 0.917 0.574 0.616 0.867 1.388 0.867 2.318v7.504h2.613v-7.504c0-1.729-0.472-3.091-1.415-4.112s-2.18-1.532-3.684-1.532c-0.433 0-0.867 0.052-1.287 0.17-0.433 0.118-0.778 0.249-1.058 0.393s-0.548 0.301-0.79 0.485c-0.242 0.183-0.408 0.314-0.484 0.393s-0.14 0.131-0.166 0.17v-7.255z"></path>
        <path fill="#323264" style="fill: var(--color2, #323264)" d="M17.297 0h-2.681v18.764h2.681v-18.764z"></path>
        <path fill="#323264" style="fill: var(--color2, #323264)" d="M33.108 13.268l0.134-1.34c0-1.796-0.59-3.297-1.796-4.503s-2.707-1.796-4.503-1.796-3.351 0.643-4.637 1.93c-1.287 1.287-1.93 2.815-1.93 4.637 0 1.876 0.67 3.485 1.984 4.825s2.895 2.010 4.718 2.010c0.697 0 1.34-0.107 1.984-0.295 0.643-0.214 1.179-0.429 1.555-0.643 0.402-0.241 0.804-0.509 1.153-0.804s0.59-0.509 0.697-0.643c0.107-0.134 0.188-0.214 0.241-0.295l-1.742-1.742-0.402 0.509c-0.268 0.322-0.724 0.643-1.367 0.992-0.67 0.348-1.367 0.509-2.118 0.509-1.045 0-1.93-0.322-2.681-0.992s-1.206-1.447-1.34-2.359h10.052zM26.942 7.907c0.992 0 1.796 0.295 2.466 0.858 0.643 0.59 1.045 1.313 1.206 2.225h-7.452c0.241-0.911 0.67-1.635 1.34-2.225 0.643-0.563 1.474-0.858 2.439-0.858z"></path>
        <path fill="#323264" style="fill: var(--color2, #323264)" d="M45.609 17.986c0 1.18-0.349 2.144-1.072 2.895-0.697 0.724-1.582 1.099-2.681 1.099-0.483 0-0.965-0.080-1.421-0.214s-0.804-0.295-1.099-0.483c-0.295-0.188-0.563-0.375-0.831-0.616-0.241-0.241-0.402-0.402-0.483-0.483s-0.134-0.161-0.188-0.214l-1.742 1.742 0.214 0.268c0.134 0.188 0.375 0.429 0.697 0.697 0.322 0.241 0.697 0.509 1.126 0.777 0.429 0.241 0.965 0.456 1.635 0.643s1.367 0.295 2.091 0.295c1.823 0 3.324-0.616 4.584-1.85 1.233-1.26 1.85-2.761 1.85-4.584v-12.063h-2.681v1.34l-0.456-0.402c-0.295-0.268-0.751-0.536-1.394-0.804s-1.34-0.402-2.037-0.402c-1.635 0-3.029 0.617-4.235 1.876s-1.796 2.761-1.796 4.557 0.59 3.297 1.796 4.557c1.206 1.26 2.6 1.876 4.235 1.876 0.456 0 0.885-0.054 1.34-0.161 0.429-0.134 0.777-0.268 1.072-0.402s0.563-0.295 0.804-0.482c0.241-0.188 0.429-0.322 0.483-0.375l0.188-0.188v1.099zM38.372 12.062c0-1.126 0.349-2.064 1.072-2.841s1.582-1.18 2.547-1.18 1.823 0.402 2.547 1.18c0.697 0.777 1.072 1.716 1.072 2.841s-0.375 2.064-1.072 2.841c-0.724 0.777-1.582 1.179-2.547 1.179s-1.823-0.402-2.547-1.179c-0.724-0.777-1.072-1.716-1.072-2.841z"></path>
        <path fill="#323264" style="fill: var(--color2, #323264)" d="M62.281 18.764v-8.31c0-1.367-0.509-2.52-1.501-3.431-0.992-0.938-2.279-1.394-3.86-1.394-0.616 0-1.233 0.080-1.822 0.241-0.59 0.188-1.072 0.375-1.421 0.59s-0.697 0.456-1.018 0.751c-0.322 0.268-0.509 0.456-0.617 0.563-0.080 0.107-0.161 0.188-0.214 0.268l1.742 1.742 0.348-0.456c0.215-0.295 0.59-0.563 1.153-0.858s1.179-0.429 1.849-0.429c0.777 0 1.421 0.241 1.93 0.697s0.751 1.045 0.751 1.716l-4.691 0.804c-1.153 0.188-2.091 0.643-2.734 1.367-0.67 0.724-1.019 1.608-1.019 2.654 0 0.992 0.429 1.85 1.287 2.6 0.884 0.777 1.957 1.153 3.27 1.153 0.456 0 0.884-0.054 1.314-0.188 0.455-0.107 0.804-0.241 1.099-0.375s0.563-0.295 0.804-0.483c0.241-0.188 0.402-0.322 0.509-0.375 0.080-0.080 0.134-0.161 0.161-0.188v1.34h2.681zM56.116 16.619c-0.697 0-1.26-0.161-1.662-0.482-0.429-0.322-0.616-0.697-0.616-1.126 0-0.456 0.134-0.858 0.429-1.153s0.697-0.509 1.179-0.59l4.155-0.67v0.268c0 1.206-0.295 2.118-0.911 2.788-0.616 0.643-1.475 0.965-2.574 0.965z"></path>
        <path fill="#323264" style="fill: var(--color2, #323264)" d="M68.197 0h-2.681v18.764h2.681v-18.764z"></path>
        <path fill="#323264" style="fill: var(--color2, #323264)" d="M0 27.865h0.839v2.941h1.818v0.684h-2.656v-3.625z"></path>
        <path fill="#323264" style="fill: var(--color2, #323264)" d="M8.132 30.714h-1.683l-0.321 0.777h-0.86l1.616-3.625h0.829l1.621 3.625h-0.88l-0.321-0.777zM7.868 30.077l-0.575-1.388-0.575 1.388h1.15z"></path>
        <path fill="#323264" style="fill: var(--color2, #323264)" d="M17.58 27.865l-1.186 3.625h-0.901l-0.797-2.454-0.823 2.454h-0.896l-1.191-3.625h0.87l0.818 2.548 0.854-2.548h0.777l0.829 2.568 0.844-2.568h0.803z"></path>
        <path fill="#323264" style="fill: var(--color2, #323264)" d="M26.504 31.552c-0.369 0-0.704-0.079-1.005-0.238-0.297-0.162-0.532-0.385-0.704-0.668-0.169-0.287-0.254-0.609-0.254-0.968s0.085-0.68 0.254-0.963c0.173-0.287 0.407-0.509 0.704-0.668 0.3-0.162 0.637-0.243 1.010-0.243 0.314 0 0.597 0.055 0.849 0.166 0.255 0.11 0.47 0.269 0.642 0.476l-0.539 0.497c-0.245-0.283-0.549-0.425-0.911-0.425-0.224 0-0.425 0.050-0.601 0.15-0.176 0.097-0.314 0.233-0.414 0.409-0.097 0.176-0.145 0.376-0.145 0.601s0.048 0.425 0.145 0.601c0.1 0.176 0.238 0.314 0.414 0.414 0.176 0.097 0.376 0.145 0.601 0.145 0.363 0 0.666-0.143 0.911-0.43l0.539 0.497c-0.173 0.211-0.387 0.371-0.642 0.482s-0.54 0.166-0.854 0.166z"></path>
        <path fill="#323264" style="fill: var(--color2, #323264)" d="M32.836 31.552c-0.376 0-0.716-0.081-1.020-0.243-0.3-0.162-0.537-0.385-0.709-0.668-0.169-0.287-0.254-0.608-0.254-0.963s0.085-0.675 0.254-0.958c0.173-0.287 0.409-0.511 0.709-0.673 0.304-0.162 0.644-0.243 1.020-0.243s0.715 0.081 1.015 0.243c0.3 0.162 0.537 0.387 0.709 0.673 0.173 0.283 0.259 0.602 0.259 0.958s-0.086 0.677-0.259 0.963c-0.173 0.283-0.409 0.506-0.709 0.668s-0.639 0.243-1.015 0.243zM32.836 30.838c0.214 0 0.407-0.048 0.58-0.145 0.173-0.1 0.307-0.238 0.404-0.414 0.1-0.176 0.15-0.376 0.15-0.601s-0.050-0.425-0.15-0.601c-0.097-0.176-0.231-0.312-0.404-0.409-0.173-0.1-0.366-0.15-0.58-0.15s-0.407 0.050-0.58 0.15c-0.173 0.097-0.309 0.233-0.409 0.409-0.097 0.176-0.145 0.376-0.145 0.601s0.048 0.425 0.145 0.601c0.1 0.176 0.237 0.314 0.409 0.414 0.173 0.097 0.366 0.145 0.58 0.145z"></path>
        <path fill="#323264" style="fill: var(--color2, #323264)" d="M41.337 31.49l-0.005-2.175-1.067 1.792h-0.378l-1.062-1.745v2.128h-0.787v-3.625h0.694l1.357 2.253 1.336-2.253h0.689l0.010 3.625h-0.787z"></path>
        <path fill="#323264" style="fill: var(--color2, #323264)" d="M47.143 27.865c0.321 0 0.599 0.053 0.834 0.161 0.238 0.107 0.421 0.259 0.549 0.456s0.192 0.43 0.192 0.699c0 0.266-0.064 0.499-0.192 0.699-0.128 0.197-0.311 0.349-0.549 0.456-0.235 0.104-0.513 0.155-0.834 0.155h-0.73v0.999h-0.839v-3.625h1.569zM47.096 29.807c0.252 0 0.444-0.053 0.575-0.161 0.131-0.11 0.197-0.266 0.197-0.466 0-0.204-0.066-0.359-0.197-0.466-0.131-0.11-0.323-0.166-0.575-0.166h-0.684v1.258h0.684z"></path>
        <path fill="#323264" style="fill: var(--color2, #323264)" d="M54.11 30.714h-1.683l-0.321 0.777h-0.86l1.616-3.625h0.828l1.621 3.625h-0.88l-0.321-0.777zM53.846 30.077l-0.574-1.388-0.575 1.388h1.149z"></path>
        <path fill="#323264" style="fill: var(--color2, #323264)" d="M61.602 27.865v3.625h-0.689l-1.807-2.201v2.201h-0.829v-3.625h0.694l1.802 2.201v-2.201h0.829z"></path>
        <path fill="#323264" style="fill: var(--color2, #323264)" d="M66.788 30.206v1.284h-0.839v-1.295l-1.403-2.33h0.891l0.968 1.61 0.968-1.61h0.824l-1.409 2.341z"></path>
    </symbol>
    <symbol id="icon-Logo" viewBox="0 0 130 46" display="block">
        <path fill="#f0145a" style="fill: var(--color1, #f0145a)" d="M2.644 0h-2.644v19.093h2.644v-7.083c0-1.198 0.298-2.144 0.894-2.809s1.413-1.012 2.423-1.012c0.868 0 1.594 0.32 2.177 0.932 0.583 0.626 0.881 1.411 0.881 2.357v7.629h2.657v-7.629c0-1.758-0.479-3.142-1.438-4.181s-2.216-1.558-3.745-1.558c-0.441 0-0.881 0.053-1.309 0.173-0.441 0.12-0.79 0.253-1.076 0.399s-0.557 0.306-0.803 0.493c-0.246 0.186-0.415 0.32-0.492 0.399s-0.143 0.133-0.168 0.173v-7.376z"></path>
        <path fill="#fff" style="fill: var(--color3, #fff)" d="M17.585 0h-2.725v19.077h2.725v-19.077z"></path>
        <path fill="#fff" style="fill: var(--color3, #fff)" d="M33.659 13.49l0.136-1.363c0-1.826-0.6-3.352-1.826-4.578s-2.752-1.826-4.578-1.826-3.407 0.654-4.715 1.962c-1.308 1.308-1.962 2.862-1.962 4.715 0 1.908 0.681 3.543 2.017 4.905s2.943 2.044 4.796 2.044c0.709 0 1.363-0.109 2.017-0.3 0.654-0.218 1.199-0.436 1.581-0.654 0.409-0.245 0.818-0.518 1.172-0.818s0.6-0.518 0.709-0.654c0.109-0.136 0.191-0.218 0.245-0.3l-1.771-1.771-0.409 0.518c-0.273 0.327-0.736 0.654-1.39 1.008-0.681 0.354-1.39 0.518-2.153 0.518-1.063 0-1.962-0.327-2.725-1.008s-1.226-1.472-1.363-2.398h10.22zM27.391 8.039c1.008 0 1.826 0.3 2.507 0.872 0.654 0.6 1.063 1.335 1.226 2.262h-7.576c0.245-0.927 0.681-1.662 1.363-2.262 0.654-0.572 1.499-0.872 2.48-0.872z"></path>
        <path fill="#fff" style="fill: var(--color3, #fff)" d="M46.37 18.286c0 1.199-0.354 2.18-1.090 2.943-0.709 0.736-1.608 1.117-2.725 1.117-0.49 0-0.981-0.082-1.444-0.218s-0.818-0.3-1.117-0.491-0.572-0.382-0.845-0.627c-0.245-0.245-0.409-0.409-0.49-0.491s-0.136-0.164-0.191-0.218l-1.771 1.771 0.218 0.273c0.136 0.191 0.382 0.436 0.709 0.709 0.327 0.245 0.709 0.518 1.145 0.79 0.436 0.245 0.981 0.463 1.662 0.654s1.39 0.3 2.126 0.3c1.853 0 3.379-0.627 4.66-1.88 1.254-1.281 1.88-2.807 1.88-4.66v-12.264h-2.725v1.363l-0.463-0.409c-0.3-0.273-0.763-0.545-1.417-0.818s-1.363-0.409-2.071-0.409c-1.662 0-3.080 0.627-4.306 1.908s-1.826 2.807-1.826 4.633 0.6 3.352 1.826 4.633c1.226 1.281 2.644 1.908 4.306 1.908 0.463 0 0.899-0.055 1.363-0.164 0.436-0.136 0.79-0.273 1.090-0.409s0.572-0.3 0.818-0.491c0.245-0.191 0.436-0.327 0.49-0.381l0.191-0.191v1.117zM39.011 12.264c0-1.145 0.354-2.098 1.090-2.889s1.608-1.199 2.589-1.199c0.981 0 1.853 0.409 2.589 1.199 0.709 0.79 1.090 1.744 1.090 2.889s-0.382 2.098-1.090 2.889c-0.736 0.79-1.608 1.199-2.589 1.199s-1.853-0.409-2.589-1.199c-0.736-0.79-1.090-1.744-1.090-2.889z"></path>
        <path fill="#fff" style="fill: var(--color3, #fff)" d="M63.319 19.077v-8.448c0-1.39-0.518-2.562-1.526-3.488-1.008-0.954-2.316-1.417-3.924-1.417-0.627 0-1.253 0.082-1.853 0.245-0.6 0.191-1.090 0.381-1.445 0.6s-0.708 0.463-1.035 0.763c-0.327 0.273-0.518 0.463-0.627 0.572-0.082 0.109-0.164 0.191-0.218 0.273l1.771 1.771 0.354-0.463c0.218-0.3 0.599-0.572 1.172-0.872s1.199-0.436 1.881-0.436c0.79 0 1.444 0.245 1.962 0.709s0.763 1.063 0.763 1.744l-4.769 0.818c-1.172 0.191-2.126 0.654-2.78 1.39-0.681 0.736-1.036 1.635-1.036 2.698 0 1.008 0.436 1.88 1.308 2.643 0.899 0.79 1.989 1.172 3.325 1.172 0.463 0 0.899-0.055 1.335-0.191 0.463-0.109 0.818-0.245 1.117-0.382s0.572-0.3 0.818-0.491c0.245-0.191 0.409-0.327 0.517-0.381 0.082-0.082 0.137-0.164 0.164-0.191v1.363h2.725zM57.051 16.896c-0.708 0-1.281-0.164-1.69-0.491-0.436-0.327-0.627-0.709-0.627-1.145 0-0.463 0.136-0.872 0.436-1.172s0.709-0.518 1.199-0.6l4.224-0.681v0.272c0 1.226-0.3 2.153-0.926 2.834-0.627 0.654-1.499 0.981-2.617 0.981z"></path>
        <path fill="#fff" style="fill: var(--color3, #fff)" d="M69.333 0h-2.725v19.077h2.725v-19.077z"></path>
        <path fill="#fff" style="fill: var(--color3, #fff)" d="M0 28.33h0.853v2.99h1.848v0.695h-2.701v-3.685z"></path>
        <path fill="#fff" style="fill: var(--color3, #fff)" d="M8.268 31.225h-1.711l-0.326 0.79h-0.874l1.643-3.685h0.842l1.648 3.685h-0.895l-0.326-0.79zM7.999 30.578l-0.584-1.411-0.584 1.411h1.169z"></path>
        <path fill="#fff" style="fill: var(--color3, #fff)" d="M17.873 28.33l-1.206 3.685h-0.916l-0.811-2.495-0.837 2.495h-0.911l-1.211-3.685h0.884l0.832 2.59 0.869-2.59h0.79l0.842 2.611 0.858-2.611h0.816z"></path>
        <path fill="#fff" style="fill: var(--color3, #fff)" d="M26.946 32.078c-0.376 0-0.716-0.081-1.021-0.242-0.302-0.165-0.541-0.391-0.716-0.679-0.172-0.291-0.258-0.619-0.258-0.984s0.086-0.691 0.258-0.979c0.175-0.291 0.414-0.518 0.716-0.679 0.305-0.165 0.648-0.247 1.027-0.247 0.319 0 0.607 0.056 0.863 0.168 0.26 0.112 0.477 0.274 0.653 0.484l-0.548 0.505c-0.249-0.288-0.558-0.432-0.927-0.432-0.228 0-0.432 0.051-0.611 0.153-0.179 0.098-0.319 0.237-0.421 0.416-0.098 0.179-0.147 0.383-0.147 0.611s0.049 0.432 0.147 0.611c0.102 0.179 0.242 0.319 0.421 0.421 0.179 0.098 0.383 0.147 0.611 0.147 0.369 0 0.677-0.146 0.927-0.437l0.548 0.505c-0.176 0.214-0.393 0.377-0.653 0.49s-0.549 0.168-0.869 0.168z"></path>
        <path fill="#fff" style="fill: var(--color3, #fff)" d="M33.383 32.078c-0.383 0-0.728-0.082-1.037-0.247-0.305-0.165-0.546-0.391-0.721-0.679-0.172-0.291-0.258-0.618-0.258-0.979s0.086-0.686 0.258-0.974c0.175-0.291 0.416-0.519 0.721-0.684 0.309-0.165 0.655-0.247 1.037-0.247s0.727 0.082 1.032 0.247c0.305 0.165 0.546 0.393 0.721 0.684 0.176 0.288 0.263 0.612 0.263 0.974s-0.088 0.688-0.263 0.979c-0.175 0.288-0.416 0.514-0.721 0.679s-0.649 0.247-1.032 0.247zM33.383 31.352c0.218 0 0.414-0.049 0.59-0.147 0.175-0.102 0.312-0.242 0.411-0.421 0.102-0.179 0.153-0.383 0.153-0.611s-0.051-0.432-0.153-0.611c-0.098-0.179-0.235-0.318-0.411-0.416-0.176-0.102-0.372-0.153-0.59-0.153s-0.414 0.051-0.59 0.153c-0.175 0.098-0.314 0.237-0.416 0.416-0.098 0.179-0.147 0.383-0.147 0.611s0.049 0.432 0.147 0.611c0.102 0.179 0.24 0.319 0.416 0.421 0.176 0.098 0.372 0.147 0.59 0.147z"></path>
        <path fill="#fff" style="fill: var(--color3, #fff)" d="M42.026 32.015l-0.005-2.211-1.085 1.822h-0.384l-1.079-1.774v2.164h-0.8v-3.685h0.705l1.379 2.29 1.358-2.29h0.7l0.011 3.685h-0.8z"></path>
        <path fill="#fff" style="fill: var(--color3, #fff)" d="M47.928 28.33c0.326 0 0.609 0.054 0.848 0.163 0.242 0.109 0.428 0.263 0.558 0.463s0.195 0.437 0.195 0.711c0 0.27-0.065 0.507-0.195 0.711-0.13 0.2-0.316 0.354-0.558 0.463-0.239 0.105-0.521 0.158-0.848 0.158h-0.742v1.016h-0.853v-3.685h1.595zM47.881 30.304c0.256 0 0.451-0.054 0.584-0.163 0.133-0.112 0.2-0.27 0.2-0.474 0-0.207-0.067-0.365-0.2-0.474-0.133-0.112-0.328-0.168-0.584-0.168h-0.695v1.279h0.695z"></path>
        <path fill="#fff" style="fill: var(--color3, #fff)" d="M55.012 31.225h-1.711l-0.326 0.79h-0.874l1.643-3.685h0.842l1.648 3.685h-0.895l-0.326-0.79zM54.743 30.578l-0.584-1.411-0.585 1.411h1.169z"></path>
        <path fill="#fff" style="fill: var(--color3, #fff)" d="M62.628 28.33v3.685h-0.7l-1.837-2.237v2.237h-0.843v-3.685h0.706l1.832 2.237v-2.237h0.843z"></path>
        <path fill="#fff" style="fill: var(--color3, #fff)" d="M67.901 30.709v1.306h-0.853v-1.316l-1.427-2.369h0.906l0.985 1.637 0.984-1.637h0.837l-1.432 2.38z"></path>
    </symbol>
    <symbol id="icon-facebook" viewBox="0 0 24 24">
        <path d="M31.997 15.999c0-8.836-7.163-15.999-15.999-15.999s-15.999 7.163-15.999 15.999c0 7.985 5.851 14.604 13.499 15.804v-11.18h-4.062v-4.625h4.062v-3.525c0-4.010 2.389-6.225 6.043-6.225 1.75 0 3.581 0.313 3.581 0.313v3.937h-2.017c-1.987 0-2.607 1.233-2.607 2.498v3.001h4.437l-0.709 4.625h-3.728v11.18c7.649-1.2 13.499-7.819 13.499-15.804z"></path>
    </symbol>
</svg>
