<svg width="92" height="92" viewBox="0 0 92 92" fill="none" xmlns="http://www.w3.org/2000/svg">
<rect width="92" height="92" rx="24" fill="white"/>
<path fill-rule="evenodd" clip-rule="evenodd" d="M67.4512 49.0762V66.3713C67.4512 69.4647 65.0269 71.9997 62.0631 71.9997H29.9701C27.0063 71.9997 24.582 69.4647 24.582 66.3713V49.0762H41.2481V56.587L46.0166 59.7204L50.7851 56.587V49.0762H67.4512Z" fill="url(#paint0_linear_22728_11661)"/>
<path fill-rule="evenodd" clip-rule="evenodd" d="M42.9185 49.0762V55.6847L46.0166 57.7202L49.1146 55.6847V49.0762H42.9185Z" fill="url(#paint1_linear_22728_11661)"/>
<path fill-rule="evenodd" clip-rule="evenodd" d="M26.0737 29.1426H65.9602C67.8426 29.1426 69.381 30.8507 69.381 32.938V43.1912C69.381 45.2786 67.8426 46.9867 65.9602 46.9867H50.3142H41.7197H26.0737C24.1913 46.9867 22.6528 45.2786 22.6528 43.1912V32.938C22.6528 30.8507 24.1913 29.1426 26.0737 29.1426Z" fill="url(#paint2_linear_22728_11661)"/>
<path fill-rule="evenodd" clip-rule="evenodd" d="M37.7117 19.9551H54.3213C55.8644 19.9551 57.1272 21.2179 57.1272 22.761V27.1384H53.5697V24.5516C53.5697 23.8542 52.9996 23.2817 52.3022 23.2817H39.7308C39.0334 23.2817 38.4633 23.8542 38.4633 24.5516V27.1384H34.9058V22.761C34.9058 21.2179 36.1686 19.9551 37.7117 19.9551Z" fill="url(#paint3_linear_22728_11661)"/>
<defs>
<linearGradient id="paint0_linear_22728_11661" x1="46.0166" y1="49.0762" x2="46.0166" y2="71.9997" gradientUnits="userSpaceOnUse">
<stop stop-color="#EF8080"/>
<stop offset="1" stop-color="#F0145A"/>
</linearGradient>
<linearGradient id="paint1_linear_22728_11661" x1="46.0166" y1="49.0762" x2="46.0166" y2="57.7202" gradientUnits="userSpaceOnUse">
<stop stop-color="#EF8080"/>
<stop offset="1" stop-color="#F0145A"/>
</linearGradient>
<linearGradient id="paint2_linear_22728_11661" x1="46.0169" y1="29.1426" x2="46.0169" y2="46.9867" gradientUnits="userSpaceOnUse">
<stop stop-color="#EF8080"/>
<stop offset="1" stop-color="#F0145A"/>
</linearGradient>
<linearGradient id="paint3_linear_22728_11661" x1="46.0165" y1="19.9551" x2="46.0165" y2="27.1384" gradientUnits="userSpaceOnUse">
<stop stop-color="#EF8080"/>
<stop offset="1" stop-color="#F0145A"/>
</linearGradient>
</defs>
</svg>
